<svg xmlns="http://www.w3.org/2000/svg" viewBox="0 0 7410 3900">
  <rect width="7410" height="3900" fill="#b22234"/>
  <g fill="#ffffff">
    <rect y="300" width="7410" height="300"/>
    <rect y="900" width="7410" height="300"/>
    <rect y="1500" width="7410" height="300"/>
    <rect y="2100" width="7410" height="300"/>
    <rect y="2700" width="7410" height="300"/>
    <rect y="3300" width="7410" height="300"/>
  </g>
  <rect width="2964" height="2100" fill="#3c3b6e"/>
  <!-- simplified star field -->
  <g fill="#ffffff" opacity="0.9">
    <circle cx="247" cy="175" r="60"/>
    <circle cx="741" cy="175" r="60"/>
    <circle cx="1235" cy="175" r="60"/>
    <circle cx="1729" cy="175" r="60"/>
    <circle cx="2223" cy="175" r="60"/>
    <circle cx="2717" cy="175" r="60"/>
    <circle cx="494" cy="350" r="60"/>
    <circle cx="988" cy="350" r="60"/>
    <circle cx="1482" cy="350" r="60"/>
    <circle cx="1976" cy="350" r="60"/>
    <circle cx="2470" cy="350" r="60"/>
    <circle cx="247" cy="525" r="60"/>
    <circle cx="741" cy="525" r="60"/>
    <circle cx="1235" cy="525" r="60"/>
    <circle cx="1729" cy="525" r="60"/>
    <circle cx="2223" cy="525" r="60"/>
    <circle cx="2717" cy="525" r="60"/>
    <circle cx="494" cy="700" r="60"/>
    <circle cx="988" cy="700" r="60"/>
    <circle cx="1482" cy="700" r="60"/>
    <circle cx="1976" cy="700" r="60"/>
    <circle cx="2470" cy="700" r="60"/>
    <circle cx="247" cy="875" r="60"/>
    <circle cx="741" cy="875" r="60"/>
    <circle cx="1235" cy="875" r="60"/>
    <circle cx="1729" cy="875" r="60"/>
    <circle cx="2223" cy="875" r="60"/>
    <circle cx="2717" cy="875" r="60"/>
    <circle cx="494" cy="1050" r="60"/>
    <circle cx="988" cy="1050" r="60"/>
    <circle cx="1482" cy="1050" r="60"/>
    <circle cx="1976" cy="1050" r="60"/>
    <circle cx="2470" cy="1050" r="60"/>
    <circle cx="247" cy="1225" r="60"/>
    <circle cx="741" cy="1225" r="60"/>
    <circle cx="1235" cy="1225" r="60"/>
    <circle cx="1729" cy="1225" r="60"/>
    <circle cx="2223" cy="1225" r="60"/>
    <circle cx="2717" cy="1225" r="60"/>
    <circle cx="494" cy="1400" r="60"/>
    <circle cx="988" cy="1400" r="60"/>
    <circle cx="1482" cy="1400" r="60"/>
    <circle cx="1976" cy="1400" r="60"/>
    <circle cx="2470" cy="1400" r="60"/>
    <circle cx="247" cy="1575" r="60"/>
    <circle cx="741" cy="1575" r="60"/>
    <circle cx="1235" cy="1575" r="60"/>
    <circle cx="1729" cy="1575" r="60"/>
    <circle cx="2223" cy="1575" r="60"/>
    <circle cx="2717" cy="1575" r="60"/>
    <circle cx="494" cy="1750" r="60"/>
    <circle cx="988" cy="1750" r="60"/>
    <circle cx="1482" cy="1750" r="60"/>
    <circle cx="1976" cy="1750" r="60"/>
    <circle cx="2470" cy="1750" r="60"/>
    <circle cx="247" cy="1925" r="60"/>
    <circle cx="741" cy="1925" r="60"/>
    <circle cx="1235" cy="1925" r="60"/>
    <circle cx="1729" cy="1925" r="60"/>
    <circle cx="2223" cy="1925" r="60"/>
    <circle cx="2717" cy="1925" r="60"/>
  </g>
</svg>
