<svg width="182" height="182" viewBox="0 0 182 182" fill="none" xmlns="http://www.w3.org/2000/svg">
<path d="M180.443 90.7509C180.443 140.288 140.288 180.442 90.746 180.442C41.215 180.442 1.06 140.288 1.06 90.7509C1.06 41.2139 41.215 1.05989 90.746 1.05989C140.288 1.05989 180.443 41.2139 180.443 90.7509Z" fill="white"/>
<path d="M171.652 125.302C169.059 131.412 165.77 137.166 161.897 142.48C160.178 144.867 158.336 147.154 156.377 149.336C140.251 167.427 116.773 178.817 90.6359 178.817C69.3449 178.817 49.8249 171.255 34.6049 158.679C25.4399 151.122 17.8279 141.734 12.3349 131.084C15.3179 128.485 18.5009 126.048 21.8679 123.766C41.4329 110.45 67.2919 102.37 95.6549 102.37C125.098 102.37 151.847 111.084 171.652 125.302Z" fill="#84411D"/>
<path d="M169.451 123.827C159.874 146.08 141.399 163.62 118.662 171.973C96.1085 180.258 70.1375 178.723 48.8915 167.437C38.2025 161.756 28.9595 153.548 21.7525 143.838C20.0165 141.495 18.4195 139.046 16.9225 136.537C16.1715 135.279 15.4705 133.994 14.7805 132.703C14.4465 132.074 18.3525 129.403 18.8425 129.024C23.6395 125.279 28.8145 122.018 34.1735 119.142C55.9585 107.445 81.3005 102.843 105.869 104.195C129.012 105.469 152.267 112.369 171.248 125.908C171.566 126.136 173.446 127.388 173.853 126.776C174.27 126.159 172.378 124.929 172.055 124.701C133.119 96.9271 78.0335 93.2321 35.0245 113.516C26.0715 117.739 17.6235 123.131 10.1335 129.609C10.0725 129.787 10.1065 129.959 10.2335 130.115C21.2015 151.172 40.3165 167.326 62.6195 175.295C84.7335 183.197 109.642 181.816 130.804 171.728C150.03 162.557 165.444 146.314 173.853 126.776C174.365 125.597 169.768 123.087 169.451 123.827Z" fill="white"/>
<path d="M156.375 149.339C140.249 167.43 116.777 178.815 90.6387 178.815C69.3487 178.815 49.8277 171.258 34.6027 158.682C25.4437 151.12 17.8307 141.738 12.3387 131.081C11.8377 130.13 11.3647 129.156 10.9087 128.177C14.4367 126.557 18.0927 125.083 21.8707 123.764C35.9497 118.828 51.6307 116.079 68.1687 116.079C95.8367 116.079 121.123 123.775 140.516 136.49H140.521C146.375 140.341 151.701 144.642 156.375 149.339Z" fill="#8DC63F"/>
<path d="M154.647 149.568C138.899 167.097 116.896 177.508 93.2908 177.981C68.8728 178.465 45.2068 168.11 28.4228 150.514C22.0128 143.797 16.7598 135.962 12.8028 127.576C12.3968 127.905 11.9908 128.239 11.5848 128.567C56.6978 108.028 117.163 114.004 153.501 148.989C153.868 149.345 154.235 149.702 154.591 150.069C155.27 150.742 158.754 149.206 158.153 148.611C141.381 131.906 118.972 121.917 95.7228 117.604C70.6478 112.958 44.1768 115.112 20.1878 123.731C16.8098 124.944 13.4928 126.302 10.2328 127.788C10.0268 127.877 8.8138 128.355 9.0138 128.773C19.2638 150.492 38.1838 167.308 60.9158 175.015C82.8238 182.444 107.286 180.708 128.243 171.109C139.589 165.911 149.767 158.388 158.103 149.106C158.676 148.472 157.546 148.5 157.179 148.544C156.378 148.65 155.215 148.939 154.647 149.568Z" fill="white"/>
<path d="M90.638 178.815C69.348 178.815 49.827 171.258 34.602 158.682C54.635 143.379 82.413 133.903 113.103 133.903C122.563 133.903 131.744 134.804 140.514 136.49C140.514 136.501 140.525 136.49 140.525 136.49C147.976 137.942 155.133 139.957 161.899 142.478C160.18 144.865 158.338 147.158 156.374 149.339C140.247 167.424 116.775 178.815 90.638 178.815Z" fill="#115F8F"/>
<path d="M90.4566 177.083C70.5346 177 51.2646 170.188 35.8396 157.551C35.9116 158.363 35.9896 159.181 36.0616 159.999C71.0696 133.434 120.985 129.121 161.585 144.129C161.112 143.255 160.639 142.382 160.166 141.514C144.028 163.678 117.841 176.972 90.4566 177.083C87.8686 177.094 88.5756 180.555 90.8186 180.55C119.549 180.433 146.705 166.705 163.632 143.45C164.412 142.387 163.104 141.163 162.214 140.835C120.395 125.376 69.1386 130.045 33.1456 157.362C32.3446 157.968 32.7066 159.27 33.3686 159.81C49.5786 173.099 69.8446 180.461 90.8186 180.55C93.4056 180.561 92.6996 177.094 90.4566 177.083Z" fill="white"/>
<path d="M180.443 90.7509C180.443 140.288 140.288 180.442 90.746 180.442C41.215 180.442 1.06 140.288 1.06 90.7509C1.06 41.2139 41.215 1.05989 90.746 1.05989C140.288 1.05989 180.443 41.2139 180.443 90.7509Z" stroke="#115F8F" stroke-width="2.12" stroke-linecap="round" stroke-linejoin="round"/>
<path d="M71.7526 74.2034L68.4086 85.4214H30.0956L33.4346 74.2034H54.1296L54.6856 51.2384H42.0646C40.9526 51.2384 39.4996 50.8314 37.7076 50.0134C36.9566 49.6634 36.2056 49.2514 35.4596 48.7844L39.6616 38.2664C40.2956 38.6174 40.8746 38.9124 41.3916 39.1404C42.8386 39.7244 44.0296 40.0194 44.9646 40.0194H60.2226C64.1956 40.0194 66.1266 42.2954 66.0156 46.8534L65.3536 74.2034H71.7526Z" fill="#115F8F"/>
<path d="M119.877 85.4233H108.742L109.571 51.2393H85.2871C83.5901 51.2393 82.1101 50.9783 80.8351 50.4493C79.3941 49.6923 78.3261 49.1363 77.6301 48.7853L81.9201 38.2683C82.4941 38.6193 83.0441 38.9083 83.5621 39.1423C85.0091 39.7263 86.3781 40.0213 87.6631 40.0213H114.056C118.669 40.0213 120.934 42.0963 120.829 46.2423L119.877 85.4233ZM91.1191 85.4233H79.8951L80.5401 59.0413H91.7591L91.1191 85.4233Z" fill="#115F8F"/>
<path d="M152.618 47.9082L140.02 72.0142L131.183 67.3622L138.64 53.0942L129.547 47.9252L135.317 38.2642L152.618 47.9082Z" fill="#115F8F"/>
</svg>
