<svg width="32" height="32" viewBox="0 0 32 32" fill="none" xmlns="http://www.w3.org/2000/svg">
<g transform="translate(5.5, 1)">
<path d="M5.67418 29.6626C4.84084 29.8292 3.07417 29.5626 2.67417 27.1626C2.17417 24.1626 -0.732965 13.192 0.174175 10.1626C0.971479 7.5 1.71652 5.83717 3.67416 4.66258C4.5075 4.16258 6.57416 3.46258 8.17416 4.66258C9.77416 5.86258 10.5075 7.49593 10.6742 8.1626C11.8408 6.49593 14.5201 4.1626 16.6742 4.1626C19.7063 4.1626 21.1742 7.1626 20.6742 8.6626C20.2742 9.8626 18.5075 11.1626 17.6742 11.6626C15.4588 12.9918 12.1179 13.6982 11.6962 13.6934C11.7836 14.3605 9.43352 25.076 8.47153 27C7.47153 29 6.34084 29.6626 5.67418 29.6626Z" fill="#0F5F53"/>
<path d="M17.5203 5.0545C17.5203 5.4545 17.8536 5.5545 18.0203 5.5545C17.9714 5.5 18.3456 5.69639 18.5203 5.55469C19.1138 5.0731 20.1632 3.96273 20.5203 3.05469C20.8536 2.22129 21.0203 0.454496 19.0203 0.0544958C17.0203 -0.345504 16.8536 1.5545 17.0203 2.5545C17.187 2.88783 17.5203 3.6545 17.5203 4.0545V5.0545Z" fill="#BF6320"/>
</g>
</svg>
